<?xml version="1.0" standalone="no"?>
<!DOCTYPE svg PUBLIC "-//W3C//DTD SVG 20010904//EN"
 "http://www.w3.org/TR/2001/REC-SVG-20010904/DTD/svg10.dtd">
<svg version="1.0" xmlns="http://www.w3.org/2000/svg"
 width="1280.000000pt" height="1280.000000pt" viewBox="0 0 1280.000000 1280.000000"
 preserveAspectRatio="xMidYMid meet">

<g transform="translate(0.000000,1280.000000) scale(0.100000,-0.100000)"
fill="#000000" stroke="none">
<path d="M6273 9384 c-88 -42 -133 -116 -133 -216 0 -59 16 -103 56 -159 l34
-47 10 -218 c19 -417 40 -959 40 -1050 l0 -91 97 -31 c54 -17 99 -30 100 -28
2 1 8 151 13 332 6 181 17 501 25 710 l14 381 30 49 c74 116 66 236 -22 322
-75 74 -172 91 -264 46z"/>
<path d="M7980 9352 c-63 -10 -126 -92 -117 -151 4 -25 4 -25 12 7 9 37 21 48
38 35 7 -6 27 -16 46 -23 39 -16 117 -96 113 -116 -5 -25 26 -15 52 16 28 34
42 86 31 122 -24 74 -101 123 -175 110z"/>
<path d="M7531 9264 c-29 -37 -27 -79 5 -109 78 -72 185 34 113 111 -32 34
-90 33 -118 -2z"/>
<path d="M5645 9153 c-72 -10 -153 -42 -485 -191 -317 -141 -613 -211 -897
-212 -62 0 -113 -2 -113 -5 0 -35 83 -121 149 -155 243 -123 785 -8 1197 256
25 16 27 16 16 2 -22 -27 -159 -112 -278 -171 -262 -132 -469 -192 -697 -205
l-112 -7 55 -56 c79 -80 142 -103 280 -102 121 1 217 22 375 84 101 39 281
142 365 208 71 56 79 57 24 5 -162 -156 -483 -328 -671 -359 -76 -13 -77 -14
-56 -37 46 -52 139 -88 225 -88 164 1 394 127 590 324 45 44 75 70 68 56 -21
-39 -239 -253 -310 -305 -36 -26 -96 -65 -134 -87 -65 -38 -68 -42 -50 -55 28
-20 112 -43 159 -43 35 0 49 6 83 39 60 57 119 96 181 117 62 22 102 65 186
200 77 125 78 126 50 59 -14 -33 -46 -95 -70 -137 -25 -43 -45 -79 -45 -80 0
-2 46 -3 102 -3 l102 0 24 55 c14 30 35 87 48 125 13 39 23 61 23 50 1 -17
-31 -147 -55 -223 -5 -19 -2 -24 17 -29 12 -4 48 -19 78 -34 l56 -28 22 21
c12 11 24 32 27 47 8 36 -20 542 -31 551 -4 3 -26 12 -48 18 -73 21 -134 99
-156 201 -16 75 -61 136 -122 165 -54 26 -120 37 -172 29z"/>
<path d="M6977 9136 c-89 -33 -125 -80 -167 -214 -29 -91 -85 -156 -153 -174
l-45 -12 -6 -85 c-3 -47 -8 -144 -11 -216 l-6 -130 38 110 c108 314 291 509
511 547 105 18 205 0 441 -78 278 -92 534 -138 646 -116 40 8 40 8 -25 16
-168 19 -389 95 -710 244 -180 83 -277 114 -380 118 -67 3 -106 0 -133 -10z"/>
<path d="M7737 9063 c-17 -16 -6 -54 18 -65 34 -15 61 8 51 46 -5 20 -13 26
-35 26 -15 0 -31 -3 -34 -7z"/>
<path d="M8265 9018 c-11 -6 -21 -11 -22 -12 -1 -1 -4 -13 -8 -27 -13 -52 62
-91 98 -51 44 48 -12 121 -68 90z"/>
<path d="M8060 8945 c-26 -31 13 -82 44 -56 19 16 21 42 4 59 -16 16 -33 15
-48 -3z"/>
<path d="M7868 8710 c-54 -10 -118 -58 -139 -105 -29 -63 -25 -115 14 -171 82
-122 240 -120 318 5 84 132 -34 298 -193 271z m148 -74 c33 -33 45 -78 24 -91
-5 -3 -34 11 -65 31 -40 27 -55 43 -55 60 0 45 51 45 96 0z"/>
<path d="M6872 8650 c-75 -46 -98 -158 -45 -221 70 -83 185 -78 244 11 34 51
38 99 10 150 -40 76 -137 104 -209 60z m175 -38 c7 -9 13 -25 13 -36 0 -16 -5
-18 -36 -13 -20 3 -42 11 -50 18 -17 14 -18 46 -1 53 19 8 60 -4 74 -22z"/>
<path d="M7236 8531 c-30 -33 -45 -92 -46 -176 0 -83 9 -105 41 -105 26 0 30
25 23 129 -6 84 -4 98 10 111 26 20 34 0 25 -63 -4 -28 -8 -84 -8 -124 -1 -64
1 -72 19 -78 43 -14 51 9 48 139 -3 115 -2 121 17 121 17 0 20 -6 19 -50 0
-27 -4 -84 -8 -125 -6 -59 -5 -79 6 -94 12 -16 18 -17 37 -7 21 12 22 17 19
141 -1 71 1 132 5 136 3 4 14 4 23 0 14 -6 15 -20 9 -136 -8 -139 -2 -163 35
-153 28 8 32 35 23 155 -9 116 -8 128 12 128 23 0 36 -70 25 -130 -14 -76 -12
-125 6 -140 12 -11 18 -10 31 3 12 12 16 38 16 114 1 107 -13 167 -44 183 -22
12 -59 -2 -59 -23 0 -7 -10 0 -21 16 -25 33 -51 35 -73 5 -11 -16 -19 -19 -22
-11 -3 7 -14 23 -24 35 -15 19 -20 20 -34 9 -9 -7 -16 -20 -16 -29 0 -12 -7
-9 -28 11 -33 32 -43 33 -66 8z"/>
<path d="M5652 8095 c-144 -50 -228 -129 -258 -245 -18 -71 -13 -121 20 -195
58 -128 177 -192 503 -270 289 -69 341 -84 437 -122 95 -38 177 -82 214 -116
39 -35 72 -111 72 -163 0 -95 -55 -156 -248 -276 -151 -94 -241 -179 -284
-266 -29 -59 -33 -76 -33 -152 0 -106 27 -169 106 -253 l54 -56 49 44 49 44
-29 41 c-47 66 -55 88 -55 146 0 104 46 151 290 291 52 31 119 73 148 95 235
178 255 485 44 680 -121 112 -316 194 -610 259 -350 76 -436 105 -490 162 -45
49 -25 145 35 167 50 20 96 11 189 -36 79 -39 100 -46 151 -45 97 0 154 31
154 83 0 73 -70 141 -193 186 -84 32 -216 30 -315 -3z m363 -85 c24 -26 13
-68 -20 -76 -46 -12 -81 42 -49 77 22 24 46 24 69 -1z"/>
<path d="M6312 6986 c2 -129 6 -238 10 -242 4 -3 36 10 72 30 l66 37 0 169 0
168 -32 19 c-18 11 -53 27 -77 36 l-43 18 4 -235z"/>
<path d="M6383 6389 l-43 -30 0 -140 c0 -76 3 -139 6 -139 3 0 26 14 50 32
l44 31 0 139 c0 76 -3 138 -7 138 -5 -1 -27 -14 -50 -31z"/>
<path d="M6511 5889 c-13 -11 -31 -24 -40 -29 -14 -7 -14 -12 3 -47 32 -67 36
-90 20 -143 -12 -40 -27 -60 -81 -107 -101 -87 -124 -113 -151 -171 -29 -63
-27 -130 4 -202 l20 -44 0 69 c0 91 35 160 114 223 30 24 73 58 95 75 99 79
130 139 123 236 -3 43 -12 72 -34 107 -16 26 -33 49 -39 50 -5 2 -21 -6 -34
-17z"/>
<path d="M6385 5799 c-34 -30 -35 -33 -35 -104 0 -40 3 -86 6 -103 l6 -31 34
22 34 22 0 113 c0 61 -2 112 -5 112 -2 0 -20 -14 -40 -31z"/>
<path d="M6376 5375 c-18 -13 -18 -25 -12 -182 9 -240 18 -338 27 -321 10 18
34 481 26 502 -8 19 -16 20 -41 1z"/>
<path d="M6506 5244 c-4 -20 -5 -38 -2 -41 2 -3 8 11 12 31 3 21 4 39 1 42 -2
3 -8 -11 -11 -32z"/>
<path d="M3678 4395 c-67 -22 -98 -62 -98 -130 0 -30 5 -65 12 -79 11 -26 97
-76 128 -76 41 0 112 -33 121 -57 10 -28 -1 -57 -27 -67 -46 -18 -144 3 -185
40 -15 13 -19 11 -43 -21 -15 -19 -24 -40 -21 -45 4 -6 30 -22 58 -37 103 -52
235 -39 292 28 20 25 25 41 25 88 0 91 -41 128 -176 160 -57 14 -98 45 -90 68
3 8 6 18 6 23 0 5 15 14 34 20 39 12 100 1 143 -27 13 -9 25 -14 27 -12 42 57
46 66 28 82 -50 45 -161 65 -234 42z"/>
<path d="M6010 4395 c-57 -18 -124 -75 -150 -126 -30 -58 -36 -146 -16 -211
32 -99 113 -158 229 -166 115 -8 207 43 253 143 45 96 23 238 -47 302 -69 62
-182 86 -269 58z m189 -124 c58 -58 69 -159 23 -220 -37 -51 -82 -73 -138 -69
-93 8 -145 67 -146 163 -1 102 62 165 163 165 55 0 62 -3 98 -39z"/>
<path d="M2120 4151 l0 -251 129 0 c71 0 143 5 162 12 106 36 169 123 169 234
0 73 -18 121 -66 173 -51 57 -104 73 -261 78 l-133 5 0 -251z m286 133 c54
-40 69 -70 69 -139 0 -107 -50 -152 -175 -156 l-75 -2 -3 162 -3 163 80 -3
c61 -3 86 -9 107 -25z"/>
<path d="M2685 4390 c-4 -7 -6 -119 -4 -251 l4 -239 48 0 47 0 0 80 0 80 55 0
55 0 52 -80 53 -80 58 0 c44 0 56 3 51 13 -4 6 -30 45 -57 86 -47 71 -49 75
-31 88 66 46 84 79 84 152 0 57 -28 105 -80 135 -30 18 -56 21 -181 25 -107 2
-149 0 -154 -9z m275 -95 c52 -27 52 -106 0 -132 -14 -7 -60 -13 -102 -13
l-78 0 0 80 0 80 75 0 c48 0 87 -6 105 -15z"/>
<path d="M4040 4150 l0 -250 50 0 50 0 0 100 0 100 115 0 115 0 0 -100 0 -100
50 0 50 0 0 250 0 250 -50 0 -49 0 -3 -102 -3 -103 -112 -3 -113 -3 0 106 0
105 -50 0 -50 0 0 -250z"/>
<path d="M4600 4150 l0 -250 45 0 45 0 0 250 0 250 -45 0 -45 0 0 -250z"/>
<path d="M4830 4150 l0 -250 50 0 51 0 -2 156 c0 85 1 157 3 160 3 2 47 -49
98 -113 52 -65 109 -137 128 -160 30 -38 38 -43 75 -43 l42 0 -2 248 -1 247
-46 3 c-25 2 -46 -1 -46 -5 0 -4 -1 -77 -2 -160 0 -84 -3 -153 -7 -153 -3 1
-62 73 -131 160 l-125 160 -42 0 -43 0 0 -250z"/>
<path d="M5370 4353 l0 -42 78 -3 77 -3 3 -202 2 -203 45 0 45 0 2 203 3 202
78 3 77 3 0 42 0 42 -205 0 -205 0 0 -42z"/>
<path d="M6660 4151 l0 -251 50 0 50 0 0 80 0 80 53 0 53 0 55 -82 54 -82 55
1 c30 1 56 2 58 2 2 1 -24 40 -57 88 l-60 88 35 19 c40 23 74 86 74 137 0 50
-39 120 -80 144 -30 17 -57 20 -187 24 l-153 3 0 -251z m294 134 c34 -32 35
-77 1 -110 -22 -23 -32 -25 -110 -25 l-85 0 0 80 0 80 84 0 c74 0 86 -3 110
-25z"/>
<path d="M7327 4343 c-82 -188 -187 -431 -187 -437 0 -3 22 -6 49 -6 l49 0 22
55 22 55 117 0 116 0 24 -55 23 -55 49 0 c27 0 49 4 49 9 0 8 -66 160 -187
434 l-26 57 -47 0 -47 0 -26 -57z m111 -153 c17 -44 32 -84 32 -90 0 -10 -132
-15 -142 -5 -6 6 64 174 72 175 3 0 20 -36 38 -80z"/>
<path d="M7907 4393 c-4 -3 -7 -87 -7 -185 0 -179 0 -179 -26 -205 -21 -21
-32 -25 -66 -20 -22 3 -47 12 -56 20 -15 14 -21 12 -52 -14 -33 -28 -34 -29
-15 -44 47 -36 96 -55 146 -55 65 0 107 20 139 67 24 35 25 42 28 240 l4 203
-44 0 c-25 0 -48 -3 -51 -7z"/>
<path d="M8261 4363 c-8 -21 -54 -128 -103 -238 -49 -110 -92 -206 -95 -212
-4 -10 9 -13 45 -13 l51 0 25 55 25 55 114 0 115 0 22 -55 22 -55 54 0 53 0
-50 113 c-27 61 -77 174 -111 250 l-60 137 -47 0 c-45 0 -47 -1 -60 -37z m102
-180 c19 -43 33 -81 31 -85 -7 -10 -139 -1 -139 9 0 14 60 153 66 153 3 0 22
-35 42 -77z"/>
<path d="M8660 4151 l0 -251 50 0 50 0 0 74 0 74 93 4 c105 4 147 22 184 78
31 44 32 140 3 187 -36 59 -87 76 -242 81 l-138 4 0 -251z m270 132 c29 -24
32 -31 27 -70 -3 -27 -12 -50 -23 -58 -23 -17 -86 -28 -134 -23 l-35 3 -3 88
-3 87 70 0 c61 0 73 -3 101 -27z"/>
<path d="M9150 4151 l0 -251 50 0 50 0 0 75 0 75 71 0 c93 0 143 16 179 57 76
86 54 219 -45 270 -21 11 -71 17 -167 21 l-138 5 0 -252z m272 131 c30 -30 31
-94 1 -123 -17 -17 -37 -23 -97 -27 l-76 -5 0 93 0 92 75 -4 c61 -3 79 -7 97
-26z"/>
<path d="M9742 4328 c-17 -40 -65 -151 -106 -247 -42 -95 -76 -175 -76 -177 0
-2 22 -4 48 -4 l48 0 27 55 27 55 110 0 111 0 25 -55 25 -55 50 0 c48 0 50 1
43 23 -6 19 -74 177 -181 420 l-26 57 -47 0 -47 0 -31 -72z m120 -145 c20 -43
33 -81 31 -85 -8 -14 -143 -9 -143 5 0 18 62 157 70 157 4 0 23 -35 42 -77z"/>
<path d="M10160 4150 l0 -250 50 0 50 0 2 166 3 166 130 -166 130 -165 43 -1
42 0 0 250 0 250 -50 0 -50 0 -2 -161 -3 -160 -50 63 c-215 268 -205 258 -252
258 l-43 0 0 -250z"/>
<path d="M3210 4003 c-50 -19 -32 -113 21 -113 22 0 59 38 59 60 0 23 -34 60
-52 59 -7 0 -20 -3 -28 -6z"/>
<path d="M3964 3616 c-62 -27 -92 -102 -69 -169 18 -52 41 -75 87 -87 64 -18
161 21 131 51 -8 8 -20 6 -41 -5 -44 -23 -76 -20 -111 10 -26 22 -31 33 -31
71 0 36 6 50 29 74 34 33 69 37 112 12 21 -13 32 -14 40 -6 16 16 3 32 -37 49
-41 17 -70 17 -110 0z"/>
<path d="M4206 3623 c-3 -4 -6 -64 -6 -135 l0 -128 90 0 c73 0 90 3 90 15 0
12 -14 15 -70 15 l-70 0 0 114 c0 88 -3 115 -14 119 -8 3 -17 3 -20 0z"/>
<path d="M4473 3623 c-10 -3 -13 -40 -13 -134 0 -122 1 -129 20 -129 19 0 20
7 20 129 0 72 -3 132 -7 134 -5 2 -14 2 -20 0z"/>
<path d="M4606 3622 c-3 -3 -6 -63 -6 -134 0 -121 1 -128 20 -128 18 0 20 8
22 97 l3 98 75 -97 c105 -135 111 -133 108 35 -3 109 -6 132 -18 132 -12 0
-16 -19 -20 -93 l-5 -94 -73 93 c-68 86 -91 106 -106 91z"/>
<path d="M5145 3616 c-121 -55 -108 -227 19 -256 67 -15 158 22 128 52 -10 10
-18 9 -41 -5 -40 -24 -74 -21 -109 8 -33 28 -45 74 -30 117 19 53 90 75 137
42 20 -15 24 -15 38 -1 14 13 13 17 -10 32 -36 23 -96 28 -132 11z"/>
<path d="M5473 3618 c-11 -15 -113 -242 -113 -252 0 -16 39 -4 45 14 12 37 34
50 88 50 59 0 68 -5 84 -42 8 -17 20 -28 33 -28 11 0 20 2 20 5 0 2 -26 60
-57 127 -65 139 -78 155 -100 126z m63 -155 c-2 -2 -24 -3 -49 -1 l-45 3 25
55 24 54 25 -53 c13 -30 23 -56 20 -58z"/>
<path d="M6165 3616 c-89 -39 -109 -148 -40 -221 29 -31 38 -35 84 -35 93 0
141 45 141 132 0 101 -94 164 -185 124z m116 -55 c23 -23 29 -38 29 -71 0 -33
-6 -48 -29 -71 -37 -37 -79 -38 -120 -3 -27 22 -31 32 -31 73 0 95 87 136 151
72z"/>
<path d="M6446 3623 c-3 -3 -6 -64 -6 -135 0 -121 1 -128 20 -128 19 0 20 7
20 98 1 88 2 95 16 77 87 -116 139 -175 155 -175 18 0 19 8 17 132 -3 117 -5
133 -20 136 -16 3 -18 -6 -18 -92 0 -53 -3 -96 -7 -96 -5 1 -37 39 -72 86 -61
82 -92 110 -105 97z"/>
<path d="M6834 3616 c-49 -22 -74 -61 -74 -118 0 -90 46 -140 129 -141 26 0
61 7 80 17 30 16 32 19 18 33 -14 14 -18 14 -38 -1 -29 -20 -61 -20 -99 -1
-37 19 -50 43 -50 90 0 74 84 119 145 79 25 -16 45 -12 45 9 0 34 -105 57
-156 33z"/>
<path d="M7135 3615 c-51 -27 -75 -64 -75 -118 0 -92 46 -137 141 -137 48 0
55 3 91 40 32 34 38 48 38 83 0 47 -26 98 -62 121 -37 24 -99 29 -133 11z m98
-36 c32 -14 51 -51 51 -96 0 -27 -7 -42 -32 -64 -43 -39 -84 -38 -123 0 -78
78 5 205 104 160z"/>
<path d="M7417 3624 c-4 -4 -7 -65 -7 -136 l0 -128 95 0 c78 0 95 3 95 15 0
12 -14 15 -70 15 l-69 0 -3 117 c-2 97 -6 118 -18 121 -9 1 -19 0 -23 -4z"/>
<path d="M7730 3617 c-47 -16 -80 -68 -80 -124 0 -85 51 -133 140 -133 48 0
56 4 92 40 39 39 40 42 36 95 -5 62 -31 98 -85 121 -39 17 -57 17 -103 1z
m123 -58 c66 -82 -9 -198 -104 -159 -63 27 -78 112 -29 162 27 27 36 30 73 25
26 -4 48 -14 60 -28z"/>
<path d="M8070 3614 c-47 -20 -72 -57 -78 -114 -10 -111 81 -174 197 -135 l51
17 0 64 0 65 -57 -3 c-45 -2 -59 -7 -61 -20 -2 -13 5 -17 35 -20 31 -2 39 -7
41 -26 5 -35 -15 -52 -63 -52 -78 0 -125 69 -95 141 24 57 58 67 153 44 42
-11 36 22 -8 41 -43 18 -70 17 -115 -2z"/>
<path d="M8503 3616 c-39 -18 -53 -58 -32 -95 10 -18 32 -32 69 -44 73 -24 85
-36 64 -65 -18 -26 -56 -28 -94 -7 -32 18 -47 19 -54 0 -13 -35 126 -62 165
-32 27 21 40 54 30 79 -12 33 -28 44 -85 59 -56 16 -77 39 -57 63 15 18 72 21
88 5 13 -13 43 -5 43 10 0 29 -92 47 -137 27z"/>
<path d="M4940 3490 c0 -109 2 -130 15 -130 13 0 15 21 15 130 0 109 -2 130
-15 130 -13 0 -15 -21 -15 -130z"/>
<path d="M5700 3490 l0 -130 90 0 c72 0 90 3 90 15 0 11 -16 15 -67 17 l-68 3
-3 113 c-2 104 -4 112 -22 112 -19 0 -20 -7 -20 -130z"/>
<path d="M8330 3490 c0 -123 1 -130 20 -130 19 0 20 7 20 130 0 123 -1 130
-20 130 -19 0 -20 -7 -20 -130z"/>
<path d="M8710 3605 c0 -11 12 -15 45 -15 l45 0 0 -115 c0 -108 1 -115 20
-115 18 0 20 8 22 113 l3 112 38 3 c24 2 37 8 37 18 0 11 -20 14 -105 14 -87
0 -105 -3 -105 -15z"/>
</g>
</svg>
